<svg width="60" height="60" viewBox="0 0 60 60" fill="none" xmlns="http://www.w3.org/2000/svg">
<g id="Layer_1" clip-path="url(#clip0_900_2203)">
<path id="Vector" d="M30.0012 59.3312C46.2022 59.3312 59.3357 46.1987 59.3357 29.999C59.3357 13.7992 46.2022 0.666748 30.0012 0.666748C13.8002 0.666748 0.666718 13.7992 0.666718 29.999C0.666718 46.1987 13.8002 59.3312 30.0012 59.3312Z" fill="#00984A"/>
<path id="Vector_2" d="M30.0012 49.5065C40.7753 49.5065 49.5094 40.7726 49.5094 29.9989C49.5094 19.2251 40.7753 10.4912 30.0012 10.4912C19.2271 10.4912 10.493 19.2251 10.493 29.9989C10.493 40.7726 19.2271 49.5065 30.0012 49.5065Z" fill="#ED1C24"/>
<path id="Vector_3" d="M30.1409 26.4913C34.0004 26.4913 37.1291 23.2931 37.1291 19.348C37.1291 15.4029 34.0004 12.2047 30.1409 12.2047C26.2815 12.2047 23.1528 15.4029 23.1528 19.348C23.1528 23.2931 26.2815 26.4913 30.1409 26.4913Z" fill="#FFF200"/>
<path id="Vector_4" d="M34.9267 16.5971H33.6733L30.5557 15.3665V14.5131C30.5557 14.5131 31.1283 14.1404 31.3086 13.9225C30.8397 13.8978 30.5625 13.8237 30.3077 13.2533V12.9906H30.0598V13.2533C29.8073 13.826 29.5278 13.8978 29.0589 13.9225C29.2392 14.1404 29.8118 14.5131 29.8118 14.5131V15.3665L26.6942 16.5971H25.4408C25.1771 16.9451 25.6572 17.4145 25.921 17.4796C26.1847 17.5447 26.4282 17.5088 26.4282 17.5088C26.4282 17.5088 28.7185 23.0465 29.1806 24.1738C29.0206 24.4926 28.4367 24.6521 28.1256 24.67C27.8145 24.688 26.9489 24.4253 27.0706 24.1446C27.1924 23.8639 27.7018 24.0143 28.0603 24.2299C28.4187 24.4455 28.7005 24.203 28.6531 23.9492C28.5494 23.3856 26.4958 23.143 26.4304 24.0233C26.4011 24.8879 27.0616 25.1214 27.8055 25.1596C27.8709 26.0421 28.5878 26.0511 28.9169 25.9298C29.246 25.8086 29.1243 25.4425 28.7749 25.319C28.4254 25.1978 28.3601 25.2247 28.4367 25.0001C28.7568 24.4567 29.6608 24.9148 29.5954 25.7412C29.53 26.5474 28.9259 26.37 28.9259 26.37C28.9259 26.37 28.3916 27.1447 29.3339 27.2817C30.2762 27.4187 31.8451 27.3603 31.4416 26.37C31.4416 26.37 30.8397 26.5474 30.7721 25.7412C30.7067 24.9148 31.6107 24.4545 31.9308 25.0001C32.0052 25.2247 31.9398 25.1978 31.5927 25.319C31.2433 25.4403 31.1215 25.8063 31.4506 25.9298C31.7798 26.0511 32.4966 26.0421 32.562 25.1596C33.3059 25.1214 33.9664 24.8879 33.9371 24.0233C33.8717 23.1408 31.8181 23.3856 31.7144 23.9492C31.667 24.203 31.9488 24.4477 32.3073 24.2299C32.6657 24.0143 33.1729 23.8639 33.2969 24.1446C33.4186 24.4253 32.553 24.688 32.2419 24.67C31.9308 24.6521 31.3469 24.4926 31.1869 24.1738C31.649 23.0465 33.9393 17.5088 33.9393 17.5088C33.9393 17.5088 34.1828 17.547 34.4465 17.4796C34.7103 17.4122 35.1904 16.9451 34.9267 16.5971ZM29.7735 23.6101L27.3682 17.6323H29.7825L29.7735 23.6101ZM30.6008 23.6101L30.5918 17.6323H33.0061L30.6008 23.6101Z" fill="#ED1C24"/>
<path id="Vector_5" d="M29.9989 43.8385C24.5278 43.8385 19.83 40.3847 17.8012 35.4534H13.7255C15.9347 42.6304 22.384 47.8245 29.9989 47.8245C37.6137 47.8245 44.0631 42.6281 46.2722 35.4534H42.1966C40.1678 40.3847 35.4699 43.8385 29.9989 43.8385Z" fill="white"/>
<path id="Vector_6" d="M40.4721 49.8278C39.9018 50.1377 39.3563 50.4947 38.7657 50.7574L40.9726 55.1813C40.5195 55.1476 40.0821 55.1229 39.6403 55.0668L38.2404 51.9072C38.166 51.741 38.0533 51.631 37.9068 51.5793C37.5484 51.4491 37.1877 51.4581 36.8157 51.6108C35.9434 51.9274 35.0574 52.1879 34.1557 52.3967L34.1873 52.5382C34.7509 52.3833 35.3302 52.4372 35.9298 52.5697C36.4889 52.7066 36.9104 52.9289 37.1787 53.2456C37.2779 53.3668 37.3477 53.4859 37.3906 53.5981C37.4785 53.8384 37.4379 54.0877 37.2598 54.3459C37.066 54.6289 36.7549 54.84 36.3356 54.977C36.0335 55.0578 35.745 55.0645 35.4767 55.0017C35.2062 54.9388 35.0552 54.822 35.0146 54.6491C34.9673 54.4537 35.0935 54.2359 35.3775 53.9934C35.5556 53.9103 35.7179 53.8497 35.8667 53.8137C36.0741 53.7598 36.2815 53.7261 36.5024 53.7419C36.3919 53.5555 36.1688 53.4185 35.8284 53.3377C35.3618 53.1984 34.8816 53.1962 34.3699 53.3332L35.1882 57.0227L34.4939 56.8094C34.2594 56.5556 34.1061 56.4007 34.0295 56.3468C33.8965 56.2345 33.6711 56.111 33.3645 55.974C32.9835 55.7988 32.6544 55.6574 32.3681 55.5945C31.7414 55.4642 31.0922 55.3565 30.4092 55.3273C29.9944 55.0645 29.5954 54.7479 29.2144 54.447C30.5196 53.8721 31.8519 53.3085 33.2518 52.765L33.218 52.5674C31.5994 52.8369 29.9448 52.9065 28.3105 52.7673L27.8799 57.6897C27.5057 57.4269 27.1428 57.1619 26.7911 56.8992L27.26 53.4769C27.2848 53.2972 27.2465 53.1445 27.1496 53.0233C26.9129 52.7246 26.6063 52.5405 26.2095 52.4753C24.9945 52.2104 23.7862 51.8825 22.632 51.3997L21.5094 54.1506C21.4531 54.2853 21.523 54.3886 21.7146 54.4627C22.0843 54.6064 22.7087 54.5817 23.5428 54.2943C23.7141 54.2337 23.8471 54.1326 23.9418 53.9911L23.8832 53.9732C23.6352 53.9035 23.4188 53.7913 23.2407 53.6386C23.0581 53.4881 22.9724 53.3332 22.9747 53.176C22.9747 53.0839 23.013 52.9941 23.0874 52.9065C23.3309 52.6123 23.7163 52.5315 24.2483 52.6999C24.6676 52.8436 24.9832 53.0165 25.1861 53.2995C25.3687 53.542 25.4476 53.8092 25.4138 54.0944C25.3845 54.3639 25.2673 54.5885 25.0531 54.7681C24.9043 54.8961 24.6316 55.0488 24.2145 55.224C23.651 55.4553 22.9206 55.5159 22.0392 55.3969C21.8994 55.3565 21.7777 55.316 21.674 55.2779C21.3111 55.1341 21 54.9298 20.7768 54.6177C20.5649 54.3325 20.468 54.0742 20.4815 53.8407C20.4928 53.7127 20.9188 52.7718 21.7529 51.0157C21.4644 50.8832 21.1713 50.7597 20.894 50.6002L20.3598 49.5897C21.9783 50.5127 23.7073 51.2133 25.4949 51.6534C25.939 51.7365 26.2884 51.8241 26.5387 51.8825H26.5432C26.9579 51.9948 27.2578 52.2193 27.4561 52.527C27.4674 52.1003 27.5102 51.6332 27.5779 51.1257L28.0355 51.4648C28.0558 51.6624 28.1008 51.8308 28.1662 51.9723C28.1978 52.0127 28.2406 52.0621 28.297 52.1228C30.8104 52.3451 33.3713 52.0801 35.772 51.2829C36.1936 51.1145 36.5385 51.0157 36.7842 50.9281C37.2012 50.8046 37.5732 50.8271 37.9113 50.9932C37.6949 50.6205 37.483 50.2005 37.2756 49.7312C37.4695 49.7626 37.6566 49.7649 37.8527 49.7828C37.9744 49.94 38.1007 50.0613 38.2314 50.1466C38.2787 50.1646 38.3419 50.1826 38.423 50.205C38.7251 50.0591 39.0294 49.9153 39.3157 49.7402C39.6922 49.7716 40.0776 49.7986 40.4699 49.821L40.4721 49.8278ZM33.3803 53.5802C32.7919 53.8609 32.3095 54.0181 31.9669 54.2089C31.8609 54.2606 31.6287 54.42 31.2545 54.5885C32.2306 54.7838 33.0512 55.1005 33.7026 55.48L33.3803 53.5802Z" fill="white"/>
<path id="Vector_7" d="M17.1001 12.1733C17.2264 12.2721 17.276 12.4113 17.2512 12.5932C17.2286 12.7751 17.1294 12.9188 16.9716 13.0491C16.8161 13.1726 16.6515 13.231 16.4734 13.231C16.2954 13.231 16.1624 13.1748 16.0699 13.0648C15.9843 12.9593 15.9595 12.829 16.0001 12.6718C16.0406 12.5146 16.1331 12.3777 16.2796 12.2631C16.4058 12.1621 16.5478 12.0992 16.7101 12.0857C16.8702 12.07 16.9987 12.0992 17.1001 12.1733ZM14.235 13.2826C14.4852 13.4353 14.6295 13.5319 14.6678 13.5746C15.2426 14.2011 15.0848 14.877 14.3071 15.7146C14.0344 16.0088 13.7571 16.2289 13.4392 16.3546C13.2296 16.4467 12.9185 16.55 12.4722 16.6555C11.7035 16.8442 10.5222 16.7454 8.88341 16.4624L9.48755 16.02C9.52587 15.9953 9.7017 16.0021 10.0128 16.047C10.8311 16.1525 11.5299 16.1278 12.1295 15.9661L12.5984 15.8381C13.1034 15.6765 13.464 15.4541 13.721 15.1779C13.9239 14.9646 14.0592 14.7355 14.129 14.484C14.1967 14.2303 14.1696 14.0372 14.0141 13.8822C13.9487 13.8171 13.8811 13.7924 13.8067 13.8081L13.6579 13.844C13.6196 14.0169 13.5362 14.1741 13.4009 14.3156C13.2296 14.4975 13.047 14.6031 12.8576 14.6412C12.6728 14.6817 12.5195 14.6502 12.4023 14.5469C12.2828 14.4414 12.2265 14.2864 12.2355 14.0798C12.2467 13.8755 12.3369 13.6891 12.497 13.5207C12.6007 13.4129 12.7337 13.3096 12.896 13.2153C12.9884 13.0042 12.9906 12.8515 12.8824 12.7414C12.6796 12.5371 12.4181 12.5798 12.1205 12.8986C11.9199 13.1075 11.7734 13.3028 11.6809 13.4825C11.6313 13.5858 11.5592 13.8014 11.4645 14.118C11.433 14.2235 11.4149 14.3246 11.4149 14.4212C11.6629 14.3403 11.868 14.3762 12.0348 14.52C12.249 14.7064 12.1949 14.9758 11.8861 15.3441C11.5028 15.8337 11.1219 15.9369 10.7454 15.6562C10.6237 15.5642 10.547 15.4519 10.5177 15.3149C10.3464 14.5087 10.644 13.6082 11.4532 12.7347C11.9807 12.1553 12.5871 11.9689 13.1958 12.1396C13.2724 12.1598 13.3491 12.2115 13.428 12.2946C13.6917 12.5775 13.8134 12.9099 13.8067 13.2849C13.9848 13.2624 14.129 13.2647 14.2372 13.2849L14.235 13.2826ZM4.30955 25.6762C4.56203 25.4089 4.80323 25.1462 5.06472 24.8947C4.95201 25.4853 4.83028 26.0737 4.7604 26.671L9.33201 27.2953L8.6129 27.9487L5.40286 27.6231C5.23379 27.6052 5.09628 27.6433 4.99259 27.7354C4.73561 27.96 4.59359 28.2631 4.56654 28.6359C4.5192 29.4892 4.50567 30.3426 4.55301 31.1959L4.68827 31.1914C4.67023 30.6547 4.78971 30.1405 5.11657 29.6779C5.41413 29.2489 5.73874 28.9929 6.10168 28.8986C6.24144 28.8649 6.36768 28.8515 6.48264 28.8582C6.72159 28.8717 6.91997 28.9772 7.09354 29.1726C7.28065 29.3859 7.37307 29.6464 7.36405 29.9631C7.35278 30.1876 7.30995 30.3875 7.19498 30.5694C7.08227 30.7513 6.94476 30.8456 6.7802 30.8501C6.5931 30.8546 6.41953 30.7288 6.25497 30.4638C6.21664 30.3111 6.18959 30.1741 6.19635 30.0529C6.20086 29.88 6.24595 29.7093 6.32936 29.5476C6.12873 29.5791 5.93937 29.7115 5.75678 29.9653C5.51107 30.3044 5.42991 30.7064 5.44569 31.1622L8.97358 31.023L8.67151 31.4407C8.40326 31.5732 8.2387 31.6675 8.17783 31.7169C8.0516 31.8 7.92085 31.9459 7.76531 32.157C7.57821 32.4175 7.44971 32.6555 7.38209 32.8666C7.21978 33.3315 7.17019 33.8255 7.23105 34.3353C7.02141 34.6856 6.81402 35.0449 6.60663 35.4176C5.81313 34.5329 5.17744 33.4078 4.77393 32.0852L4.58683 32.0986C4.73786 33.6234 4.94074 35.1527 5.35552 36.6325L9.82118 35.4738L9.39738 36.3518L6.30456 37.2703C6.14 37.3174 6.02503 37.4073 5.96868 37.5308C5.8199 37.8339 5.80862 38.1685 5.9281 38.5233C6.30005 39.6169 6.74639 40.6881 7.28515 41.7121L9.76031 40.4613C9.88204 40.4007 9.90909 40.3041 9.84372 40.1761C9.71072 39.9268 9.31848 39.6798 8.68955 39.3722C8.55429 39.3115 8.40777 39.2913 8.25222 39.3138L8.27026 39.3587C8.35367 39.5406 8.38973 39.7292 8.37846 39.9224C8.36944 40.1177 8.30633 40.2637 8.20489 40.3558C8.14402 40.4119 8.06061 40.4456 7.95241 40.4591C7.59624 40.5062 7.32798 40.2974 7.13412 39.846C6.98309 39.4867 6.95829 39.1633 7.071 38.8804C7.17695 38.6266 7.35278 38.4447 7.59399 38.3302C7.82166 38.2224 8.05611 38.1955 8.2928 38.2404C8.45511 38.2741 8.70082 38.3661 9.0367 38.5054C9.49206 38.6962 9.89106 39.0286 10.281 39.4822C10.3351 39.5631 10.3802 39.6372 10.414 39.7023C10.5313 39.9336 10.5628 40.1851 10.5087 40.468C10.4614 40.7285 10.3644 40.9374 10.2134 41.0923C10.1278 41.1732 9.28918 41.647 7.69092 42.5048L8.14853 43.2661L8.11246 44.3619C7.14088 42.8259 6.30907 41.2046 5.64181 39.5137C5.46823 39.1027 5.36003 38.7659 5.29691 38.5188V38.5144C5.20223 38.0989 5.22928 37.7464 5.42315 37.4567C5.05345 37.6161 4.64093 37.7643 4.18332 37.9013L4.30955 37.3174C4.47411 37.2254 4.60486 37.1243 4.7063 37.0165C4.7311 36.9739 4.75815 36.9155 4.79196 36.8436C4.15176 34.4341 3.88125 31.9347 3.93309 29.4488C3.91732 29.0042 3.93309 28.6494 3.98269 28.3979C4.05708 27.9757 4.22615 27.6613 4.51469 27.4637C4.11343 27.4704 3.67386 27.4525 3.19821 27.4031L3.53409 26.9113C3.71894 26.8888 3.87899 26.8461 4.01425 26.7833C4.05257 26.7518 4.09991 26.7092 4.15852 26.6553C4.19459 26.3274 4.24869 26.004 4.30955 25.6807V25.6762ZM5.54037 32.0223C5.741 32.5433 5.92134 32.9385 6.08364 33.2147C6.14 33.2978 6.25271 33.4864 6.45108 33.7694C6.60888 32.9677 6.9132 32.3389 7.33475 31.8898L5.54037 32.0223ZM52.104 28.9099C51.9552 28.9638 51.8087 28.9301 51.6644 28.8111C51.5202 28.6943 51.4413 28.5348 51.4277 28.3305C51.412 28.1329 51.4593 27.96 51.5495 27.814C51.6419 27.6658 51.7591 27.5827 51.9011 27.567C52.0364 27.5513 52.1626 27.6007 52.2776 27.7197C52.3971 27.8387 52.4557 27.9914 52.4692 28.1755C52.4805 28.3372 52.4534 28.4899 52.3835 28.6314C52.3159 28.7729 52.2212 28.8672 52.1063 28.9121L52.104 28.9099ZM47.0297 16.1144C46.8584 16.2558 46.642 16.2895 46.3827 16.2244C46.1258 16.1593 45.9071 16.0155 45.7132 15.8C45.4562 15.5327 45.3052 15.2678 45.2556 14.9983C45.0753 14.1921 45.2353 13.4645 45.7966 12.8515C46.279 12.326 47.0027 12.0722 48.0261 12.1576C46.9891 11.1268 45.8665 10.1837 44.6718 9.34158L44.5929 9.45161C45.037 9.75702 45.3526 10.1904 45.5306 10.7204C45.6997 11.2054 45.6884 11.6366 45.5442 11.9802C45.4856 12.1104 45.4202 12.2182 45.3458 12.3035C45.1903 12.4832 44.9806 12.5775 44.7259 12.5887C44.4509 12.5977 44.1803 12.5214 43.9324 12.3215C43.7543 12.1845 43.6371 12.0071 43.5604 11.8095C43.486 11.6119 43.4928 11.4435 43.5897 11.311C43.7002 11.1605 43.9053 11.0999 44.2164 11.1313C44.3562 11.1987 44.4757 11.2706 44.5726 11.3469C44.7101 11.4547 44.8183 11.5917 44.8972 11.7534C44.9941 11.576 45.0031 11.3469 44.9107 11.0527C44.7912 10.653 44.5343 10.3252 44.1556 10.0692L42.1155 12.9391L41.9689 12.4473C42.0253 12.1576 42.0478 11.9757 42.0456 11.8993C42.0523 11.7556 42.0208 11.558 41.9487 11.302C41.8585 10.9899 41.7525 10.7339 41.6218 10.5587C41.34 10.168 40.9861 9.81316 40.5443 9.54818C40.3932 9.16867 40.2354 8.78018 40.0551 8.40965C41.2476 8.3086 42.5393 8.47926 43.8264 8.98902L43.9301 8.83183C42.8503 8.11547 41.7052 7.49793 40.524 6.96123C40.3256 6.65807 40.1272 6.3347 39.9086 6.04277C43.8264 7.64839 47.325 10.2286 50.0324 13.4668C50.082 13.8193 50.1068 14.1786 50.1383 14.5289C49.8272 14.1427 49.5071 13.8373 49.1803 13.6172C48.1726 12.9188 47.298 12.8649 46.6285 13.3388C46.4053 13.4937 46.2385 13.6285 46.1258 13.743C45.7425 14.1315 45.6614 14.6322 45.844 15.2341L45.8846 15.2947L45.8958 15.2228C45.9161 15.0881 45.9409 14.9938 45.9725 14.9444C46.1145 14.7378 46.3512 14.7041 46.6916 14.8546C46.8223 14.9129 46.9215 14.996 47.0027 15.0904C47.1086 15.2139 47.1672 15.3374 47.1762 15.4609C47.2754 15.7416 47.2258 15.9572 47.032 16.1166L47.0297 16.1144ZM43.4026 9.62902C42.8751 9.45611 42.4559 9.35056 42.129 9.32362C42.0275 9.31688 41.8021 9.3034 41.4617 9.28319C42.0118 9.88277 42.3274 10.5026 42.4175 11.1291L43.4049 9.63126L43.4026 9.62902ZM45.8643 15.4205L45.747 15.3531C45.8034 15.4137 45.8417 15.4339 45.8643 15.4205ZM17.0798 7.51814C17.4518 7.53162 17.8192 7.54958 18.1889 7.59C17.6772 7.84376 17.1926 8.14467 16.6989 8.42986L19.023 12.1935L18.5271 12.1576C17.9545 11.9263 17.6186 11.8095 17.5668 11.796C17.2264 11.7129 16.8499 11.7152 16.4419 11.8028C15.9662 11.9173 15.4974 12.1306 15.0758 12.463C14.6701 12.436 14.2553 12.4158 13.8337 12.4024C14.3522 11.0842 15.1051 9.9434 16.0023 9.03618L15.9257 8.9239C15.1232 9.45611 14.35 10.0355 13.6128 10.6553L13.6489 10.6508C11.6877 12.2946 9.96094 14.2191 8.57684 16.3704C7.95692 17.3068 7.42717 18.2993 6.94025 19.3099L7.99975 19.8061L8.16656 19.8308C8.24997 19.8151 8.30633 19.7657 8.34916 19.6849C8.36719 19.6467 8.33112 19.4356 8.24546 19.0314C8.16431 18.6294 8.15078 18.3487 8.23194 18.2185C8.401 17.9243 8.71209 17.7492 9.15618 17.7042C9.53714 17.6616 9.84597 17.72 10.0556 17.8502C10.6598 18.223 10.9235 18.7642 10.8762 19.4446C10.8266 19.8713 10.7003 20.3294 10.4163 20.7987C10.1819 21.2523 9.84823 21.5689 9.48304 21.7935C9.23057 21.9507 8.8496 22.0922 8.33563 22.2314C8.2635 22.2471 8.02229 22.2741 7.60751 22.3257C7.34151 22.3616 6.74414 22.2988 5.80412 22.1528L6.24595 21.5937C6.55478 21.6767 6.9087 21.6992 7.3122 21.6745C7.76305 21.6386 8.13726 21.5487 8.44158 21.3983L8.9578 21.1535C9.25536 20.9761 9.4853 20.6797 9.68141 20.271C9.79864 20.0464 9.87302 19.8017 9.91135 19.5322C9.94516 19.2627 9.94065 19.0449 9.86401 18.8675C9.76708 18.616 9.65662 18.4498 9.53038 18.3779C9.42668 18.3195 9.3027 18.3083 9.15618 18.3487C9.18999 18.4633 9.21253 18.6249 9.22155 18.8338C9.2734 19.3615 9.23733 19.759 9.0908 20.0442C8.97133 20.2957 8.80226 20.4821 8.57007 20.5988C8.33789 20.7179 8.11922 20.7515 7.91183 20.6999L7.90507 20.6505L7.90056 20.6954L6.56605 20.1273C6.29103 20.7942 6.02278 21.4634 5.80186 22.1506L5.66435 22.5593L4.84832 23.2374C5.33073 21.4859 5.99798 19.7837 6.83656 18.1691C6.83656 18.0501 6.86136 17.8412 6.93575 17.556C6.85685 17.556 6.7509 17.6369 6.62015 17.8075C6.48941 17.9782 6.39473 18.1242 6.33612 18.2477C6.18734 18.5261 6.01151 18.9326 5.80637 19.4626C5.7162 19.6804 5.64857 19.8308 5.61251 19.9229C5.36003 20.5674 5.02866 21.0412 4.67023 21.3826C4.37718 21.6475 4.11118 21.7486 3.87448 21.6722C3.74599 21.6296 3.63779 21.5375 3.54987 21.3871C3.48225 21.2546 3.46872 21.1288 3.50704 21.0098C3.51831 20.9828 3.62201 20.8054 3.83842 20.4888C3.84969 20.8054 3.9083 20.9784 3.98494 21.0053C4.08413 21.0412 4.2036 20.9784 4.33886 20.8189C4.46059 20.6842 4.55752 20.5337 4.62515 20.3608L4.72208 20.1138C4.75815 19.9993 4.98583 19.348 5.50205 18.1915C6.1941 16.9205 6.92673 16.5253 7.53538 16.9003C9.83245 13.0221 13.1394 9.7413 17.0731 7.5114L17.0798 7.51814ZM16.4509 9.71211C15.9482 10.2645 15.5402 10.8529 15.2516 11.4884C16.1038 11.156 16.877 11.1201 17.5104 11.2953L16.4509 9.71211ZM33.4299 4.92221L33.0602 7.65512C33.0399 7.80109 33.1413 7.88867 33.3622 7.91561C33.6215 7.95604 33.9371 7.88867 34.3316 7.69779C34.7283 7.50242 34.9898 7.33625 35.116 7.14088L35.08 7.1319C34.8388 7.078 34.6449 6.98818 34.4939 6.85569C34.3451 6.72095 34.282 6.57049 34.3113 6.40881L34.3654 6.24712C34.5615 5.95295 34.9132 5.83169 35.3978 5.95295C35.7517 6.03604 36.0177 6.19323 36.18 6.438C36.3446 6.68726 36.3807 6.92755 36.2995 7.15884C36.1282 7.65288 35.8149 7.97176 35.3572 8.1806C34.5029 8.55337 33.9055 8.74425 33.493 8.67014C32.855 8.57133 32.465 8.26144 32.305 7.68656C32.2825 7.59898 32.2892 7.39014 32.3208 7.05779L32.5462 4.81442C32.0728 4.78074 31.5994 4.73358 31.1238 4.71562L30.9299 9.13049L30.1747 8.53316L30.2063 4.69091C29.6765 4.68418 29.1445 4.70888 28.6148 4.7246L28.856 9.21133L28.0557 8.59379L27.8799 6.63112C27.8393 6.54354 27.7356 6.46046 27.5688 6.37962C27.3998 6.30551 27.2465 6.27856 27.109 6.29653C26.9128 6.32123 26.7438 6.42902 26.6063 6.61765C26.0405 7.41484 25.7113 7.86621 25.5152 7.92235C25.4634 7.93583 25.3867 7.95379 25.2898 7.97849C25.0486 8.03463 24.8728 8.04586 24.76 8.01442C24.5459 8.02116 24.1649 7.78312 23.5766 7.34298C23.7434 7.14537 23.9102 6.93428 24.086 6.7434C24.1514 6.9006 24.2326 7.02186 24.3295 7.11169C24.4986 7.2554 24.627 7.31604 24.7195 7.29583C24.8164 7.28011 25.0599 6.92755 25.522 6.31674C25.3507 5.80025 24.9539 5.57793 24.3498 5.70593C23.9553 5.78677 23.7006 5.8227 23.5878 5.83618C23.3804 5.8474 23.1686 5.79576 22.9476 5.67898C22.6749 5.75758 22.4021 5.82944 22.1339 5.926L23.5044 10.1298L22.587 9.82888L21.2615 6.22018L20.4409 6.5413C20.0825 6.4627 19.7241 6.40432 19.3611 6.35267C19.8841 6.1034 20.4296 5.91028 20.9662 5.69246L20.5649 5.59814C20.4319 5.56221 20.344 5.49709 20.3057 5.40277C20.2516 5.24109 20.2493 5.09962 20.3012 4.97611C20.4477 4.64376 20.6055 4.37877 20.7723 4.19688C20.9368 4.01274 21.2096 3.79042 21.5973 3.52769C21.8363 3.36825 22.1451 3.24474 22.5148 3.13919C23.4278 2.88095 24.4715 2.85849 25.5693 3.07183C25.912 3.13246 26.3808 3.31884 26.9444 3.57933L27.3006 4.09358C26.7844 3.92067 26.2524 3.73653 25.7113 3.58158C24.99 3.37723 24.1762 3.37049 23.3106 3.58607C22.8394 3.70284 22.3548 3.97007 21.8746 4.35183C21.7754 4.4686 21.6672 4.62579 21.55 4.82116C21.4147 5.04572 21.3606 5.1827 21.3854 5.22761L21.701 5.44319C24.4039 4.52474 27.2645 4.08909 30.1116 4.09358L29.769 3.86228C29.6563 3.78369 29.5977 3.69162 29.5977 3.59056C29.6044 3.4199 29.6518 3.28516 29.7442 3.18635C29.9989 2.92137 30.2401 2.74397 30.4565 2.62495C30.6752 2.51042 31.0088 2.3914 31.4619 2.28361L31.6107 2.26565C31.6918 2.21625 31.7955 2.1893 31.9421 2.20053L32.0615 2.23197C32.1878 2.23197 32.314 2.22972 32.456 2.24095C33.4006 2.31954 34.3857 2.65863 35.3415 3.24025C35.4835 3.32333 35.6413 3.44684 35.8149 3.59505C35.9726 3.66018 36.1124 3.72754 36.2251 3.7994C36.8045 4.17218 37.0051 4.59211 36.8743 4.99407L37.5168 5.17597C37.7558 5.44993 37.9744 5.75758 38.1931 6.04277C36.6444 5.51505 35.0416 5.14004 33.4208 4.92221H33.4299ZM27.7199 4.79197C26.9083 4.86607 26.0968 4.97162 25.2943 5.12656C25.7249 5.26804 25.9593 5.51281 26.0157 5.85414V5.86312C26.3538 5.62509 26.5792 5.52853 26.6694 5.51056C26.9489 5.48361 27.3412 5.60488 27.8236 5.96193L27.7199 4.79421V4.79197ZM32.2374 2.95954C32.3118 2.99098 32.3952 3.02018 32.4966 3.04488C32.6431 3.07856 33.0151 3.12572 33.617 3.18186H33.6305C33.6666 3.18411 33.8875 3.19084 34.2842 3.23576L34.3361 3.24474C33.9438 3.08754 33.5133 2.99772 33.0489 2.93484C32.7942 2.89667 32.5214 2.91688 32.2351 2.95954H32.2374ZM35.9817 4.78747L36.0313 4.63926C36.0155 4.40347 35.7607 4.24179 35.2761 4.17667C34.947 4.11828 34.5029 4.04867 33.9438 3.99253C33.7094 3.97456 33.5471 3.96109 33.4569 3.94986C32.9024 3.87126 32.4222 3.74326 32.0074 3.55463C31.7505 3.43337 31.5679 3.29863 31.4484 3.14818H31.4394C31.3064 3.22228 31.1486 3.33456 30.9705 3.47604C30.7631 3.63997 30.6662 3.75 30.6752 3.7994L30.8938 4.11154C32.6048 4.16993 34.3135 4.39449 35.9817 4.78747ZM51.2384 44.2541L52.2009 42.6822L48.1704 40.4231L48.7474 40.2682L48.8759 40.3355C49.0653 40.4366 49.3516 40.5129 49.7348 40.5511C50.0752 40.6005 50.3728 40.6073 50.632 40.5736C50.889 40.5399 51.1527 40.4501 51.4142 40.2974C51.7118 40.1087 51.9304 39.8752 52.0657 39.6035C51.8741 39.6798 51.7185 39.7113 51.5991 39.7023L51.412 39.6461C51.2474 39.5743 51.146 39.4373 51.1099 39.2442C51.0738 39.0488 51.1099 38.8265 51.2203 38.5705C51.5044 37.8092 51.9079 37.5128 52.4782 37.6992C52.7622 37.7935 52.9494 38.0203 53.0305 38.3886C53.1117 38.7569 53.0869 39.1656 52.8953 39.581C52.5774 40.3355 51.9845 40.8386 51.1054 41.007L50.9882 41.0294L52.627 41.8715C53.1522 40.9014 53.5783 39.8774 53.9547 38.8445L53.939 38.8557C54.1103 38.328 54.3289 37.816 54.4574 37.2748L50.1541 36.0352L50.9408 35.4401L53.5445 36.1362C53.6482 36.1632 53.8511 36.0891 54.1531 35.9094C54.5048 35.7051 54.6603 35.485 54.6874 35.2807C54.7212 34.982 54.6829 34.7956 54.5747 34.7238C54.1418 35.2896 53.8015 35.5254 53.549 35.4693C53.4926 35.4558 53.3912 35.4042 53.2447 35.3144C53.0553 35.1482 52.9967 34.8585 53.0756 34.4453C53.1342 34.1062 53.3281 33.8412 53.6008 33.6257C53.4994 33.5134 53.4182 33.3562 53.3596 33.1586C53.2988 32.9609 53.2785 32.7768 53.2988 32.6039C53.3281 32.3501 53.4227 32.1525 53.5828 32.0088C53.7383 31.8628 53.8984 31.7932 54.0787 31.8067C54.2478 31.8179 54.4439 31.9414 54.6107 32.184C54.7685 32.3995 54.8722 32.6466 54.9263 32.9205C55.0007 32.8689 55.0909 32.788 55.1991 32.678C55.3005 32.5141 55.3727 32.312 55.3997 32.0717L55.4268 31.3576L55.438 31.3419L55.4651 30.5896L51.0287 30.5177L51.3398 30.1202C51.8358 29.7609 52.1063 29.5454 52.1514 29.5072C52.4151 29.2647 52.6247 28.948 52.7532 28.5573C52.9246 28.0947 52.9877 27.5872 52.9336 27.055C53.1861 26.7271 53.425 26.3903 53.6504 26.0467C54.4867 27.192 55.0638 28.4383 55.3298 29.6801H55.4673C55.4606 28.6247 55.3569 27.576 55.2171 26.5318C55.1517 26.15 55.0278 25.8042 54.8993 25.5122C54.374 24.4052 53.6594 23.9179 52.8321 23.992C52.5616 24.0144 52.3497 24.0481 52.1942 24.0885C51.6599 24.2345 51.3511 24.6207 51.1978 25.2338L51.2023 25.3079L51.2474 25.2518C51.3331 25.144 51.4029 25.0766 51.4548 25.0474C51.6825 24.9396 51.9011 25.0294 52.1175 25.3304C52.1964 25.4471 52.255 25.5661 52.2731 25.6874C52.3024 25.8468 52.2889 25.9838 52.2325 26.0961C52.1739 26.388 52.0206 26.552 51.7726 26.5901C51.554 26.6261 51.3488 26.5475 51.1617 26.3611C50.9701 26.1747 50.8687 25.9389 50.7966 25.6605C50.7109 25.3012 50.7222 24.9958 50.8101 24.7375C51.0558 23.9515 51.572 23.3991 52.3587 23.1521C53.0463 22.9388 53.7947 23.0825 54.6355 23.6686C54.4236 22.8759 54.1757 22.0922 53.8939 21.3197L49.5635 22.9118L49.8813 22.0024L52.8682 20.7852C53.026 20.7201 53.1297 20.6235 53.1815 20.4911C53.31 20.1699 53.283 19.8376 53.1297 19.4962C53.0395 19.2964 52.9516 19.0943 52.8479 18.8989L48.894 20.8369C48.8962 20.5944 48.9458 20.271 49.0337 19.8533L51.0355 18.8765C51.2812 18.5508 51.3872 18.2724 51.3827 18.0321C50.623 17.6593 49.843 17.3472 49.0766 17.0732C48.9391 16.7184 48.8151 16.3479 48.6618 15.9931C48.9278 16.0627 49.1758 16.1503 49.4372 16.2356C49.4936 16.2558 49.559 16.2401 49.6311 16.1885C49.816 16.0582 49.8498 15.9167 49.7348 15.764C49.7123 15.7304 49.5297 15.5574 49.1667 15.2722C49.0473 15.1555 48.9796 15.0118 48.9661 14.8366C48.9503 14.6614 48.9864 14.5379 49.0743 14.4661C49.1397 14.4122 49.2366 14.3875 49.3629 14.3942C50.2623 14.4414 51.0626 14.9174 51.6667 15.8045C51.971 16.2715 52.1626 16.7611 52.1829 17.2821C52.2077 17.7514 52.1356 18.1646 51.9327 18.5396L52.2911 18.2656L53.1522 17.7267L53.1026 17.6953C52.7645 17.0979 52.4264 16.4961 52.0454 15.9235C53.3686 16.7499 54.6603 17.7267 55.8686 18.8585C55.9881 19.1684 56.0805 19.4873 56.1774 19.8039C55.3501 19.1392 54.4935 18.5396 53.6189 18.0097L53.6256 18.1377L53.5873 18.232C53.4678 18.3128 53.4025 18.3959 53.3889 18.4812L53.4025 18.6586C53.5783 18.964 53.682 19.2335 53.7564 19.4356C53.8984 19.8398 53.8916 20.1991 53.7271 20.5113C54.0787 20.3159 54.4732 20.1273 54.9173 19.9476L54.8587 20.5382C54.7054 20.646 54.5859 20.7583 54.498 20.8751C54.48 20.92 54.4574 20.9806 54.4326 21.0547C55.6612 24.3468 56.2248 27.8926 56.0286 31.3935L56.0174 31.4092L55.9903 32.1368C55.9543 32.4714 55.8596 32.7611 55.7131 33.0036C55.5462 33.2147 55.4606 33.3225 55.4538 33.3315C55.3614 33.4438 55.269 33.5224 55.1788 33.5718C55.4471 33.8502 55.5801 34.2926 55.5778 34.8967C55.5755 35.0583 55.5688 35.1706 55.5575 35.2313C55.4966 35.5524 55.0999 35.9678 54.3064 36.3945L54.1441 36.4843L55.1202 36.6056L56.1166 36.7762C55.8866 37.0143 55.6973 37.1939 55.5508 37.3197C55.4876 37.3579 55.4132 37.3736 55.3321 37.3691L55.2149 37.3377C55.1337 37.3736 55.0638 37.4522 55.0052 37.5622C54.3583 39.7337 53.4273 41.8199 52.2438 43.7511L51.2361 44.2496L51.2384 44.2541ZM51.5179 17.1294C51.4954 16.8217 51.4142 16.5612 51.2812 16.3501C50.9814 15.8651 50.6162 15.6113 50.2668 15.5485C50.49 15.9325 50.4787 16.2693 50.224 16.5612C50.65 16.7409 51.0806 16.9295 51.5202 17.1316L51.5179 17.1294ZM51.058 25.2877C51.0761 25.3685 51.0986 25.4045 51.1234 25.4045C51.1031 25.373 51.0806 25.3371 51.058 25.2877ZM54.5228 29.6913C54.3425 28.9705 54.0359 28.3125 53.6775 27.7264C53.4746 28.6224 53.1184 29.2894 52.6135 29.7273L54.5228 29.6913Z" fill="white"/>
<g id="Group">
<path id="Vector_8" d="M15.308 37.2772L17.0933 36.3542L16.5861 37.9397C16.5704 37.9846 16.5546 38.0295 16.5365 38.0744C16.5185 38.1215 16.496 38.171 16.4712 38.2248L17.6614 37.6095L17.7899 37.8566L16.0068 38.7773L16.5208 37.1627C16.5343 37.12 16.5501 37.0751 16.5704 37.0324C16.5884 36.9898 16.6087 36.9471 16.6312 36.9044L15.4387 37.522L15.3102 37.275L15.308 37.2772Z" fill="#ED1C24"/>
<path id="Vector_9" d="M18.2678 40.2594C18.1551 40.338 18.0356 40.3941 17.9071 40.4233C17.7786 40.4525 17.6479 40.457 17.5149 40.4368C17.3819 40.4144 17.2602 40.3694 17.1474 40.3021C17.037 40.2347 16.9423 40.1471 16.8657 40.0393C16.789 39.9315 16.7349 39.8125 16.7079 39.6845C16.6808 39.5565 16.6786 39.4263 16.7011 39.296C16.7236 39.1635 16.771 39.0423 16.8431 38.9322C16.913 38.8222 17.0054 38.7279 17.1204 38.6471C17.2331 38.5685 17.3526 38.5123 17.4811 38.4809C17.6096 38.4494 17.7403 38.4449 17.8733 38.4674C18.0063 38.4899 18.128 38.5348 18.2385 38.6021C18.349 38.6718 18.4436 38.7593 18.5203 38.8694C18.5969 38.9772 18.651 39.0939 18.6781 39.2219C18.7051 39.3477 18.7074 39.4779 18.6848 39.6082C18.66 39.7407 18.6104 39.8642 18.5406 39.9742C18.4684 40.0842 18.3783 40.1808 18.2655 40.2594H18.2678ZM18.0875 40.0034C18.1664 39.9473 18.234 39.8799 18.2858 39.8013C18.3377 39.7227 18.3737 39.6374 18.3918 39.5453C18.4098 39.4555 18.4121 39.3657 18.3918 39.2781C18.3715 39.1905 18.3377 39.1097 18.2858 39.0355C18.234 38.9614 18.1686 38.9008 18.092 38.8559C18.0153 38.8087 17.9297 38.7795 17.8372 38.7683C17.7448 38.7548 17.6524 38.7593 17.5622 38.784C17.4698 38.8065 17.3841 38.8469 17.3052 38.9053C17.2263 38.9614 17.1587 39.0288 17.1091 39.1052C17.0573 39.1838 17.0212 39.2668 17.0032 39.3589C16.9851 39.451 16.9829 39.5408 17.0032 39.6284C17.0212 39.716 17.0573 39.7968 17.1091 39.8709C17.161 39.945 17.2263 40.0034 17.303 40.0483C17.3796 40.0932 17.4653 40.1224 17.5577 40.1359C17.6501 40.1494 17.7426 40.1426 17.835 40.1202C17.9252 40.0977 18.0108 40.0573 18.0897 40.0034H18.0875Z" fill="#ED1C24"/>
<path id="Vector_10" d="M18.6533 40.8162L18.0108 41.3956L17.8215 41.1867L19.2552 39.8955L19.537 40.2076C19.6204 40.2997 19.679 40.3761 19.7105 40.4367C19.7443 40.4973 19.7624 40.5602 19.7669 40.6208C19.7714 40.6949 19.7556 40.7668 19.7218 40.8409C19.688 40.9128 19.6384 40.9779 19.573 41.0385C19.4581 41.1418 19.3431 41.1957 19.2304 41.2025C19.1177 41.2069 19.0072 41.1643 18.899 41.0722L18.6736 42.1321L18.4436 41.8806L18.6736 40.8454L18.651 40.8185L18.6533 40.8162ZM18.8472 40.6702L18.8832 40.7107C18.9914 40.8297 19.0771 40.8948 19.1402 40.9083C19.2033 40.9218 19.2732 40.8948 19.3453 40.8297C19.4242 40.7578 19.4603 40.6882 19.4558 40.6163C19.4513 40.5445 19.3972 40.4547 19.2935 40.3424L19.2574 40.302L18.8472 40.6725V40.6702Z" fill="#ED1C24"/>
<path id="Vector_11" d="M20.4702 41.5191L19.3408 42.7384L19.1177 42.5341L20.2471 41.3147L19.8841 40.9824L20.0667 40.787L21.0112 41.656L20.8309 41.8514L20.4702 41.5213V41.5191Z" fill="#ED1C24"/>
<path id="Vector_12" d="M19.9856 43.3134L21.1352 41.7639L21.3787 41.9436L20.9549 42.514L21.6875 43.0551L22.1113 42.4848L22.3548 42.6644L21.2051 44.2139L20.9617 44.0342L21.5207 43.282L20.7881 42.7408L20.229 43.493L19.9856 43.3134Z" fill="#ED1C24"/>
<path id="Vector_13" d="M24.4287 44.3038C24.3858 44.1982 24.3295 44.1084 24.2596 44.032C24.1897 43.9557 24.1086 43.8951 24.0139 43.8501C23.8313 43.7603 23.6532 43.7491 23.4796 43.8142C23.306 43.8793 23.1708 44.0096 23.0761 44.2027C22.9837 44.3891 22.9634 44.571 23.0152 44.7461C23.0671 44.9213 23.1776 45.0515 23.3466 45.1346C23.4458 45.1818 23.5495 45.211 23.6555 45.2177C23.7637 45.2245 23.8764 45.211 23.9936 45.1795L23.8358 45.4984C23.7366 45.5164 23.6374 45.5186 23.5382 45.5029C23.439 45.4872 23.3399 45.4558 23.2384 45.4064C23.1099 45.3435 23.004 45.2649 22.9161 45.1683C22.8281 45.0718 22.765 44.9617 22.7244 44.8382C22.6839 44.7169 22.6681 44.5867 22.6816 44.4542C22.6929 44.3195 22.729 44.1892 22.7921 44.0635C22.8552 43.9377 22.9341 43.8277 23.0333 43.7379C23.1325 43.648 23.2429 43.5807 23.3669 43.5358C23.4909 43.4908 23.6171 43.4729 23.7479 43.4819C23.8764 43.4908 24.0026 43.5245 24.1288 43.5852C24.2258 43.6323 24.3137 43.6929 24.3881 43.7671C24.4625 43.8412 24.5256 43.9265 24.5797 44.0275L24.4264 44.3015L24.4287 44.3038Z" fill="#ED1C24"/>
<path id="Vector_14" d="M24.2551 45.7857L24.9449 43.9869L25.2289 44.0947L24.5391 45.8935L24.2573 45.7857H24.2551Z" fill="#ED1C24"/>
<path id="Vector_15" d="M26.09 44.6584L25.6076 46.2483L25.3168 46.1607L25.7992 44.5708L25.3281 44.4293L25.4047 44.1733L26.6355 44.5439L26.5589 44.7999L26.09 44.6584Z" fill="#ED1C24"/>
<path id="Vector_16" d="M26.8249 46.5493L26.994 45.6847L26.5837 44.5394L26.8948 44.6001L27.1495 45.3164C27.1563 45.3344 27.1631 45.3591 27.1721 45.3883C27.1811 45.4175 27.1878 45.4489 27.1969 45.4826C27.2149 45.4556 27.2329 45.4287 27.251 45.404C27.269 45.3793 27.287 45.3568 27.3051 45.3389L27.8213 44.782L28.1166 44.8403L27.2893 45.7431L27.1202 46.6076L26.8272 46.5493H26.8249Z" fill="#ED1C24"/>
<path id="Vector_17" d="M30.4745 45.4241C30.3911 45.3478 30.301 45.2894 30.2063 45.249C30.1116 45.2085 30.0124 45.1883 29.9065 45.1861C29.7036 45.1816 29.5368 45.2467 29.406 45.3792C29.2753 45.5117 29.2077 45.6846 29.2031 45.9002C29.1986 46.109 29.2572 46.282 29.379 46.4189C29.5007 46.5559 29.6562 46.6278 29.8433 46.6323C29.9538 46.6323 30.0575 46.6165 30.1589 46.5784C30.2604 46.5402 30.3551 46.4818 30.4497 46.401L30.443 46.7558C30.3596 46.8142 30.2717 46.8568 30.1747 46.886C30.0778 46.913 29.9741 46.9264 29.8636 46.9242C29.7216 46.922 29.5909 46.895 29.4714 46.8434C29.3519 46.7917 29.2482 46.7198 29.1581 46.6233C29.0701 46.529 29.0025 46.4189 28.9552 46.2932C28.9101 46.1674 28.8875 46.0327 28.8898 45.8912C28.8921 45.7497 28.9191 45.6172 28.971 45.4937C29.0228 45.3702 29.0949 45.2624 29.1896 45.1704C29.2843 45.0783 29.3902 45.0087 29.512 44.9615C29.6314 44.9144 29.7622 44.8942 29.8997 44.8964C30.0079 44.8964 30.1116 44.9166 30.2108 44.9525C30.31 44.9885 30.4047 45.0401 30.4948 45.1097L30.4723 45.4241H30.4745Z" fill="#ED1C24"/>
<path id="Vector_18" d="M32.7806 45.6825C32.7964 45.8172 32.7896 45.9497 32.7535 46.0777C32.7197 46.2057 32.6611 46.3202 32.58 46.428C32.4966 46.5336 32.3996 46.6211 32.2869 46.6863C32.1742 46.7514 32.0525 46.7918 31.9217 46.8075C31.7887 46.8232 31.6602 46.8143 31.534 46.7783C31.4078 46.7424 31.2928 46.6818 31.1891 46.6009C31.0832 46.5178 30.9997 46.419 30.9366 46.3045C30.8735 46.19 30.8329 46.0642 30.8172 45.9272C30.8014 45.7903 30.8081 45.6578 30.8419 45.532C30.8758 45.404 30.9344 45.2872 31.0155 45.1817C31.0989 45.0761 31.1959 44.9908 31.3086 44.9257C31.4213 44.8606 31.5453 44.8224 31.6783 44.8044C31.8113 44.7887 31.9398 44.7977 32.0637 44.8336C32.1877 44.8695 32.3027 44.9279 32.4086 45.011C32.5146 45.0964 32.6003 45.1974 32.6634 45.3119C32.7265 45.4265 32.7671 45.5522 32.7851 45.687L32.7806 45.6825ZM32.4695 45.7206C32.4582 45.6241 32.4289 45.5343 32.3839 45.4512C32.3388 45.3681 32.2802 45.2962 32.208 45.2356C32.1381 45.1772 32.0592 45.1323 31.9736 45.1076C31.8879 45.0806 31.7977 45.0739 31.7076 45.0851C31.6174 45.0964 31.5317 45.1255 31.4551 45.1705C31.3785 45.2154 31.3108 45.276 31.2567 45.3524C31.2004 45.4265 31.162 45.5096 31.1395 45.6016C31.117 45.6937 31.1125 45.788 31.1237 45.8846C31.135 45.9811 31.1643 46.071 31.2071 46.1518C31.2522 46.2349 31.3086 46.3045 31.3807 46.3651C31.4528 46.4258 31.5317 46.4684 31.6174 46.4931C31.7031 46.5178 31.791 46.5268 31.8834 46.5156C31.9736 46.5044 32.057 46.4774 32.1336 46.4303C32.2103 46.3853 32.2756 46.3247 32.332 46.2484C32.3884 46.172 32.4267 46.0889 32.4492 45.9991C32.4718 45.9093 32.4785 45.815 32.4673 45.7184L32.4695 45.7206Z" fill="#ED1C24"/>
<path id="Vector_19" d="M33.4591 45.6016L33.6756 46.4369L33.4028 46.5066L32.9226 44.6404L33.3307 44.5371C33.4501 44.5057 33.5448 44.49 33.6147 44.49C33.6846 44.49 33.7477 44.5012 33.804 44.5259C33.8717 44.5574 33.9303 44.6045 33.9776 44.6674C34.0272 44.7303 34.061 44.8044 34.0836 44.8897C34.1219 45.0402 34.1174 45.1659 34.07 45.267C34.0227 45.3703 33.9325 45.4466 33.8018 45.4983L34.6381 46.1899L34.3067 46.2753L33.4952 45.5926L33.4614 45.6016H33.4591ZM33.4186 45.3613L33.4704 45.3478C33.626 45.3074 33.7229 45.2625 33.7635 45.2131C33.804 45.1637 33.8131 45.0896 33.7883 44.9953C33.7612 44.892 33.7161 44.8268 33.6508 44.7999C33.5854 44.7729 33.4794 44.7774 33.3307 44.8156L33.2788 44.8291L33.4163 45.3635L33.4186 45.3613Z" fill="#ED1C24"/>
<path id="Vector_20" d="M34.8974 45.1794L35.1949 45.9901L34.9312 46.0867L34.2684 44.2767L34.699 44.1195C34.8252 44.0724 34.9222 44.0454 34.9875 44.0387C35.0529 44.0319 35.1138 44.0364 35.1701 44.0521C35.24 44.0746 35.3031 44.115 35.3617 44.1757C35.4181 44.2363 35.4632 44.3082 35.4947 44.3935C35.5263 44.4788 35.5398 44.5642 35.5353 44.6472C35.5308 44.7303 35.5083 44.8044 35.4699 44.8651C35.4384 44.9145 35.3933 44.9571 35.3392 44.9931C35.2851 45.029 35.1927 45.0694 35.0664 45.1166L35.0101 45.1368L34.9019 45.1772L34.8974 45.1794ZM34.8297 44.9324L34.9019 44.9055C35.0597 44.8493 35.1589 44.7932 35.1972 44.7371C35.2355 44.6832 35.24 44.6113 35.2062 44.5215C35.1701 44.4249 35.1183 44.3665 35.0484 44.3486C34.9785 44.3306 34.8681 44.3486 34.717 44.4025L34.6449 44.4294L34.8297 44.9347V44.9324Z" fill="#ED1C24"/>
<path id="Vector_21" d="M37.634 43.8298C37.6971 43.9511 37.7354 44.0768 37.7467 44.2093C37.758 44.3396 37.7467 44.4698 37.7039 44.5978C37.6633 44.7258 37.6002 44.8403 37.5168 44.9414C37.4334 45.0424 37.3342 45.121 37.217 45.1817C37.0975 45.2423 36.9735 45.2782 36.8428 45.2872C36.712 45.2962 36.5835 45.2805 36.4573 45.24C36.3288 45.1974 36.2161 45.1345 36.1169 45.0492C36.0177 44.9638 35.9365 44.8605 35.8734 44.737C35.8103 44.6158 35.772 44.4878 35.7607 44.3575C35.7472 44.2273 35.7607 44.097 35.8013 43.969C35.8419 43.841 35.9027 43.7265 35.9861 43.6277C36.0695 43.5289 36.171 43.448 36.2905 43.3874C36.4099 43.3268 36.5339 43.2909 36.6624 43.2819C36.7909 43.2729 36.9194 43.2886 37.0479 43.329C37.1764 43.3717 37.2914 43.4368 37.3905 43.5244C37.4897 43.6097 37.5709 43.7153 37.634 43.8343V43.8298ZM37.3545 43.9713C37.3094 43.8859 37.2508 43.8096 37.1809 43.749C37.111 43.6861 37.0299 43.6389 36.9419 43.6075C36.8563 43.576 36.7661 43.5626 36.6759 43.5693C36.5858 43.5738 36.5001 43.5985 36.419 43.6389C36.3378 43.6816 36.2679 43.7355 36.2116 43.8051C36.1552 43.8747 36.1146 43.9556 36.0876 44.0454C36.0605 44.1352 36.0538 44.2273 36.0628 44.3193C36.0718 44.4137 36.1011 44.5035 36.1462 44.5911C36.1913 44.6786 36.2476 44.7527 36.3175 44.8134C36.3874 44.874 36.4663 44.9212 36.5565 44.9526C36.6444 44.984 36.7346 44.9975 36.8225 44.9908C36.9126 44.9863 36.9983 44.9616 37.0795 44.9189C37.1606 44.8785 37.2282 44.8224 37.2846 44.7527C37.3409 44.6831 37.3815 44.6045 37.4086 44.5125C37.4334 44.4226 37.4424 44.3306 37.4334 44.2385C37.4244 44.1464 37.3973 44.0566 37.3522 43.969L37.3545 43.9713Z" fill="#ED1C24"/>
<path id="Vector_22" d="M38.2427 43.5222L38.7318 44.2341L38.4997 44.3935L37.4063 42.8036L37.7535 42.5656C37.8549 42.496 37.9383 42.4488 38.006 42.4241C38.0713 42.3994 38.1345 42.3904 38.1976 42.3949C38.272 42.4016 38.3419 42.4263 38.4095 42.469C38.4771 42.5117 38.5357 42.5701 38.5853 42.6419C38.6732 42.7699 38.7115 42.8889 38.7025 43.0012C38.6935 43.1135 38.6349 43.2168 38.529 43.3111L39.5524 43.6749L39.2706 43.868L38.272 43.502L38.2427 43.5222ZM38.1232 43.3111L38.1683 43.2819C38.299 43.1921 38.3779 43.1158 38.3982 43.0551C38.4185 42.9945 38.4027 42.9226 38.3464 42.8418C38.2855 42.7542 38.2201 42.7093 38.1502 42.7048C38.0804 42.7003 37.9812 42.7407 37.8549 42.8283L37.8099 42.8575L38.1232 43.3111Z" fill="#ED1C24"/>
<path id="Vector_23" d="M40.7358 42.6823L40.2512 42.4398L39.6921 42.9158L39.8522 43.4346L39.611 43.6389L38.9888 41.5348L40.977 42.4779L40.7358 42.6845V42.6823ZM39.6065 42.6464L40.001 42.3118L39.5704 42.1007C39.5433 42.0872 39.514 42.0692 39.4802 42.049C39.4487 42.0288 39.4126 42.0064 39.3743 41.9794C39.3946 42.0176 39.4103 42.0558 39.4261 42.0895C39.4419 42.1254 39.4532 42.1568 39.4644 42.1883L39.6065 42.6464Z" fill="#ED1C24"/>
<path id="Vector_24" d="M40.3053 40.7691L41.4955 41.9301L41.2836 42.1457L40.0934 40.9847L39.7485 41.335L39.5569 41.1486L40.4563 40.2324L40.6479 40.4188L40.3053 40.7669V40.7691Z" fill="#ED1C24"/>
<path id="Vector_25" d="M42.0456 41.3304L40.5758 40.0796L40.7719 39.8506L42.2417 41.1014L42.0456 41.3304Z" fill="#ED1C24"/>
<path id="Vector_26" d="M42.9179 38.5795C43.0306 38.6581 43.1231 38.7524 43.1952 38.8624C43.2673 38.9725 43.3147 39.0937 43.3395 39.2262C43.3643 39.3587 43.362 39.4889 43.335 39.6169C43.3079 39.7449 43.2561 39.8617 43.1817 39.9695C43.105 40.0795 43.0104 40.1671 42.8999 40.2367C42.7872 40.3064 42.6677 40.3513 42.5347 40.3737C42.4017 40.3962 42.271 40.3917 42.1447 40.3625C42.0162 40.3333 41.8968 40.2794 41.7818 40.1986C41.6691 40.12 41.5767 40.0257 41.5045 39.9156C41.4324 39.8056 41.3828 39.6843 41.358 39.5518C41.3332 39.4193 41.3355 39.2913 41.3625 39.1633C41.3896 39.0376 41.4437 38.9186 41.5203 38.8085C41.5969 38.7007 41.6894 38.6109 41.7998 38.5413C41.9103 38.4717 42.032 38.4268 42.1628 38.4043C42.298 38.3841 42.4288 38.3864 42.5573 38.4178C42.6858 38.447 42.8075 38.5009 42.9179 38.5795ZM42.7376 38.8355C42.6564 38.7793 42.5708 38.7412 42.4806 38.7187C42.3882 38.6962 42.2958 38.6918 42.2033 38.7052C42.1109 38.7165 42.0275 38.7479 41.9509 38.7928C41.8742 38.84 41.8088 38.9006 41.757 38.9747C41.7052 39.0488 41.6691 39.1297 41.6511 39.2172C41.633 39.3048 41.633 39.3946 41.6533 39.4867C41.6713 39.5788 41.7074 39.6619 41.7593 39.7405C41.8111 39.8191 41.8787 39.8864 41.9599 39.9426C42.041 39.9987 42.1244 40.0369 42.2169 40.0593C42.307 40.0818 42.3995 40.0863 42.4919 40.0728C42.5843 40.0593 42.67 40.0301 42.7466 39.983C42.8233 39.9358 42.8886 39.8752 42.9405 39.8011C42.9923 39.727 43.0261 39.6461 43.0442 39.5586C43.0622 39.471 43.06 39.3812 43.0419 39.2891C43.0216 39.197 42.9878 39.1117 42.9337 39.0353C42.8819 38.9567 42.8165 38.8916 42.7376 38.8355Z" fill="#ED1C24"/>
<path id="Vector_27" d="M43.9707 38.6717L42.1808 37.7577L43.7723 37.2502C43.8174 37.2367 43.8625 37.2232 43.9121 37.212C43.9617 37.2008 44.0158 37.1896 44.0744 37.1783L42.8819 36.5698L43.0081 36.3228L44.7957 37.2345L43.1772 37.7532C43.1344 37.7667 43.0893 37.7779 43.0442 37.7891C42.9991 37.7981 42.9518 37.8071 42.9044 37.8138L44.1014 38.4246L43.9752 38.6717H43.9707Z" fill="#ED1C24"/>
</g>
<path id="Vector_28" d="M20.9346 39.3181H39.0655C40.1182 38.2043 40.9816 36.8951 41.6083 35.4512H18.3918C19.0162 36.8951 19.8796 38.2043 20.9346 39.3181Z" fill="white"/>
<path id="Vector_29" d="M21.4373 36.2686L22.0639 36.8861L22.8484 36.4819L22.4539 37.2679L23.0806 37.8832L22.2105 37.7529L21.816 38.5389L21.6717 37.6721L20.7993 37.5418L21.5815 37.1354L21.4373 36.2686Z" fill="#ED1C24"/>
<path id="Vector_30" d="M39.0452 36.2216L38.4185 36.8391L37.6363 36.4349L38.0308 37.2209L37.4018 37.8362L38.2742 37.7059L38.6687 38.4919L38.813 37.6251L39.6854 37.4926L38.9009 37.0884L39.0452 36.2216Z" fill="#ED1C24"/>
<path id="Vector_31" d="M17.5217 50.7371L15.5808 50.6383L14.3995 52.172L13.8946 50.3037L12.0641 49.6592L13.6917 48.6038L13.7413 46.6703L15.2516 47.8852L17.1137 47.335L16.4193 49.1427L17.5217 50.7371Z" fill="white"/>
<path id="Vector_32" d="M42.7782 50.7371L44.7168 50.6383L45.9003 52.172L46.403 50.3037L48.2357 49.6592L46.6059 48.6038L46.5563 46.6703L45.046 47.8852L43.184 47.335L43.8783 49.1427L42.7782 50.7371Z" fill="white"/>
<g id="Group_2">
<path id="Vector_33" d="M22.9319 30.2412H19.9495V31.0788H22.9319V30.2412Z" fill="white"/>
<path id="Vector_34" d="M28.962 30.2412H25.9796V31.0788H28.962V30.2412Z" fill="white"/>
<path id="Vector_35" d="M25.3281 30.6274C25.3281 31.1192 24.9291 31.5167 24.4354 31.5167C23.9418 31.5167 23.5428 31.1192 23.5428 30.6274C23.5428 30.1356 23.9418 29.7382 24.4354 29.7382C24.9291 29.7382 25.3281 30.1356 25.3281 30.6274Z" fill="white"/>
<path id="Vector_36" d="M34.2346 30.2412H31.2523V31.0788H34.2346V30.2412Z" fill="white"/>
<path id="Vector_37" d="M40.2647 30.2412H37.2823V31.0788H40.2647V30.2412Z" fill="white"/>
<path id="Vector_38" d="M36.6331 30.6274C36.6331 31.1192 36.2341 31.5167 35.7405 31.5167C35.2468 31.5167 34.8478 31.1192 34.8478 30.6274C34.8478 30.1356 35.2468 29.7382 35.7405 29.7382C36.2341 29.7382 36.6331 30.1356 36.6331 30.6274Z" fill="white"/>
</g>
<path id="Vector_39" d="M28.9913 26.3632H31.2906L30.5738 27.5713V43.6656H29.6968V27.6162L28.9913 26.3632Z" fill="white"/>
<g id="Group_3">
<path id="Vector_40" d="M24.3318 38.5278V36.0306H24.8931C25.2605 36.0306 25.5175 36.0486 25.6685 36.0845C25.8173 36.1205 25.948 36.1811 26.0608 36.2642C26.2095 36.3742 26.3222 36.5157 26.3989 36.6886C26.4755 36.8615 26.5139 37.0591 26.5139 37.2814C26.5139 37.5038 26.4755 37.6991 26.3989 37.8698C26.3222 38.0405 26.2095 38.1819 26.0608 38.2942C25.948 38.3773 25.8196 38.4379 25.6753 38.4739C25.531 38.5098 25.3078 38.5278 25.0035 38.5278H24.3295H24.3318ZM24.7465 38.164H25.0982C25.2921 38.164 25.4363 38.1505 25.5333 38.1258C25.6302 38.1011 25.7136 38.0584 25.7857 38C25.8827 37.9192 25.9571 37.8182 26.0044 37.6991C26.054 37.5801 26.0765 37.4386 26.0765 37.2792C26.0765 37.1198 26.0517 36.9805 26.0044 36.8593C25.9548 36.738 25.8827 36.6392 25.7857 36.5584C25.7136 36.5 25.6257 36.4573 25.5242 36.4326C25.4228 36.4079 25.265 36.3944 25.0486 36.3944H24.7465V38.1617V38.164Z" fill="#ED1C24"/>
<path id="Vector_41" d="M26.9918 38.5278V36.0306H27.4065V36.9491H28.6734V36.0306H29.0882V38.5278H28.6734V37.3129H27.4065V38.5278H26.9918Z" fill="#ED1C24"/>
<path id="Vector_42" d="M31.374 38.5278L31.0832 37.8833H30.0665L29.769 38.5278H29.3294L30.5737 35.9252L31.8158 38.5278H31.3763H31.374ZM30.2198 37.5465H30.9344L30.6707 36.9739C30.6549 36.9379 30.6391 36.8953 30.6233 36.8481C30.6076 36.801 30.5895 36.7471 30.5737 36.6887C30.5602 36.7426 30.5444 36.7942 30.5287 36.8414C30.5129 36.8885 30.4971 36.9335 30.4813 36.9716L30.2176 37.5443L30.2198 37.5465Z" fill="#ED1C24"/>
<path id="Vector_43" d="M32.0593 38.5278V36.0306H32.4741V37.0659L33.3983 36.0306H33.91L32.8911 37.1422L34.0318 38.53H33.493L32.4763 37.2545V38.53H32.0616L32.0593 38.5278Z" fill="#ED1C24"/>
<path id="Vector_44" d="M35.9817 38.5278L35.6909 37.8833H34.6742L34.3766 38.5278H33.9371L35.1814 35.9252L36.4235 38.5278H35.9839H35.9817ZM34.8275 37.5465H35.5421L35.2783 36.9739C35.2626 36.9379 35.2468 36.8953 35.231 36.8481C35.2152 36.801 35.1972 36.7471 35.1814 36.6887C35.1679 36.7426 35.1521 36.7942 35.1363 36.8414C35.1206 36.8885 35.1048 36.9335 35.089 36.9716L34.8252 37.5443L34.8275 37.5465Z" fill="#ED1C24"/>
</g>
<path id="Vector_45" d="M19.2552 16.9675L17.8102 20.5156L20.6415 19.4197L19.4671 16.4465L19.2552 16.9675ZM19.4603 17.6569C19.6722 18.1959 19.954 18.91 20.0554 19.1637C19.8007 19.2625 19.1267 19.523 18.6195 19.7184C18.8427 19.1705 19.2236 18.2363 19.4603 17.6547V17.6569Z" fill="#FFF200"/>
<path id="Vector_46" d="M40.3954 16.9698L39.4284 19.4197L42.2597 20.5156L40.6028 16.4465L40.3954 16.9698ZM40.6096 17.6569C40.8463 18.2385 41.2273 19.1727 41.4504 19.7206C40.9455 19.5253 40.2715 19.2648 40.0145 19.166C40.1159 18.91 40.3954 18.1981 40.6096 17.6592V17.6569Z" fill="#FFF200"/>
<path id="Vector_47" d="M40.9793 18.3238L41.2791 18.6584C41.2791 18.6584 42.1876 17.8612 42.9901 18.0678C43.4274 18.1801 43.7723 18.5798 44.018 19.2535V33.6367H16.0519V19.2513C16.2976 18.5776 16.6425 18.1779 17.0798 18.0656C17.8823 17.8612 18.7818 18.6494 18.7908 18.6562L19.0906 18.3216C19.0478 18.2834 18.0041 17.3672 16.9694 17.6299C16.3697 17.7826 15.9144 18.2879 15.6146 19.13L15.601 19.1659V34.0813H44.4554L44.4689 33.8567V19.1682L44.4554 19.1322C44.1555 18.2879 43.7002 17.7849 43.1006 17.6322C42.0659 17.3694 41.0244 18.2856 40.9793 18.3238Z" fill="#FFF200"/>
<g id="Group_4">
<path id="Vector_48" d="M28.7316 11.5344L28.5107 11.5796L28.7097 12.5453L28.9306 12.5001L28.7316 11.5344Z" fill="#FFF200"/>
<path id="Vector_49" d="M30.2807 10.9918H30.0552V12.3594H30.2807V10.9918Z" fill="#FFF200"/>
<path id="Vector_50" d="M31.6142 11.546L31.4277 12.5142L31.6491 12.5565L31.8355 11.5883L31.6142 11.546Z" fill="#FFF200"/>
<path id="Vector_51" d="M33.2651 11.5949L32.7406 12.8588L32.949 12.9446L33.4734 11.6807L33.2651 11.5949Z" fill="#FFF200"/>
<path id="Vector_52" d="M34.4965 12.7004L33.9533 13.5244L34.1418 13.6477L34.6849 12.8236L34.4965 12.7004Z" fill="#FFF200"/>
<path id="Vector_53" d="M36.0014 13.3674L35.0327 14.3364L35.1924 14.4949L36.1611 13.5258L36.0014 13.3674Z" fill="#FFF200"/>
<path id="Vector_54" d="M36.7146 14.8587L35.8963 15.4131L36.0231 15.5988L36.8414 15.0444L36.7146 14.8587Z" fill="#FFF200"/>
<path id="Vector_55" d="M37.8477 16.0528L36.5805 16.579L36.6673 16.7863L37.9344 16.26L37.8477 16.0528Z" fill="#FFF200"/>
<path id="Vector_56" d="M37.9354 17.7031L36.9664 17.9033L37.0122 18.1232L37.9811 17.923L37.9354 17.7031Z" fill="#FFF200"/>
<path id="Vector_57" d="M38.5258 19.2366L37.153 19.2418L37.1539 19.4664L38.5267 19.4611L38.5258 19.2366Z" fill="#FFF200"/>
<path id="Vector_58" d="M37.0045 20.6085L36.9628 20.8292L37.9353 21.0118L37.977 20.7911L37.0045 20.6085Z" fill="#FFF200"/>
<path id="Vector_59" d="M36.6644 21.919L36.5789 22.1268L37.8513 22.6462L37.9368 22.4384L36.6644 21.919Z" fill="#FFF200"/>
<path id="Vector_60" d="M36.001 23.1248L35.8777 23.3129L36.7064 23.8518L36.8296 23.6638L36.001 23.1248Z" fill="#FFF200"/>
<path id="Vector_61" d="M35.1843 24.2073L35.0257 24.3668L36.001 25.3293L36.1596 25.1697L35.1843 24.2073Z" fill="#FFF200"/>
<path id="Vector_62" d="M34.1097 25.0651L33.9237 25.192L34.4828 26.0054L34.6688 25.8786L34.1097 25.0651Z" fill="#FFF200"/>
<path id="Vector_63" d="M32.9386 25.7532L32.7308 25.8402L33.2639 27.1029L33.4717 27.0159L32.9386 25.7532Z" fill="#FFF200"/>
<path id="Vector_64" d="M31.616 26.142L31.3954 26.1885L31.6002 27.153L31.8207 27.1065L31.616 26.142Z" fill="#FFF200"/>
<path id="Vector_65" d="M28.6745 26.1483L28.4938 27.1176L28.7154 27.1586L28.8961 26.1893L28.6745 26.1483Z" fill="#FFF200"/>
<path id="Vector_66" d="M27.3723 25.771L26.8562 27.0383L27.0651 27.1227L27.5811 25.8555L27.3723 25.771Z" fill="#FFF200"/>
<path id="Vector_67" d="M26.178 25.0746L25.6396 25.9017L25.8288 26.0239L26.3672 25.1967L26.178 25.0746Z" fill="#FFF200"/>
<path id="Vector_68" d="M25.1209 24.2251L24.1568 25.2018L24.3175 25.3592L25.2817 24.3825L25.1209 24.2251Z" fill="#FFF200"/>
<path id="Vector_69" d="M24.2842 23.1291L23.4694 23.6886L23.5973 23.8735L24.4121 23.314L24.2842 23.1291Z" fill="#FFF200"/>
<path id="Vector_70" d="M23.6304 21.9493L22.3644 22.4841L22.4524 22.6909L23.7184 22.1561L23.6304 21.9493Z" fill="#FFF200"/>
<path id="Vector_71" d="M23.2741 20.6186L22.3065 20.8256L22.3539 21.0451L23.3214 20.8381L23.2741 20.6186Z" fill="#FFF200"/>
<path id="Vector_72" d="M23.1256 19.2731L21.7505 19.285L21.7525 19.5096L23.1276 19.4976L23.1256 19.2731Z" fill="#FFF200"/>
<path id="Vector_73" d="M22.3361 17.7293L22.2956 17.9502L23.2691 18.1273L23.3096 17.9064L22.3361 17.7293Z" fill="#FFF200"/>
<path id="Vector_74" d="M22.412 16.0964L22.3278 16.3047L23.6034 16.8163L23.6876 16.608L22.412 16.0964Z" fill="#FFF200"/>
<path id="Vector_75" d="M23.5473 14.883L23.4253 15.0718L24.2573 15.6055L24.3793 15.4167L23.5473 14.883Z" fill="#FFF200"/>
<path id="Vector_76" d="M24.243 13.404L24.0853 13.5645L25.0679 14.5227L25.2256 14.3622L24.243 13.404Z" fill="#FFF200"/>
<path id="Vector_77" d="M25.7586 12.7171L25.5733 12.8451L26.1373 13.6552L26.3225 13.5272L25.7586 12.7171Z" fill="#FFF200"/>
<path id="Vector_78" d="M26.9707 11.6091L26.7634 11.6974L27.3043 12.9568L27.5115 12.8685L26.9707 11.6091Z" fill="#FFF200"/>
</g>
</g>
<defs>
<clipPath id="clip0_900_2203">
<rect width="58.6667" height="58.6667" fill="white" transform="translate(0.666718 0.666748)"/>
</clipPath>
</defs>
</svg>
